<svg width="500" height="500" viewBox="0 0 500 500" fill="none" xmlns="http://www.w3.org/2000/svg">
<g filter="url(#filter0_i)">
<path d="M270.68 340.828L281.554 325.451C286.789 318.048 295.311 313.672 304.377 313.731L342.386 313.98C367.881 314.147 380.072 282.715 361.13 265.648L324.282 232.447C315.115 224.186 314.753 209.926 323.489 201.211C339.213 185.525 323.768 159.193 302.403 165.26L264.377 176.059C257.42 178.035 249.967 177.215 243.606 173.773L213.176 157.31C193.887 146.874 170.69 161.899 172.326 183.769L172.922 191.735C173.468 199.023 170.626 206.155 165.218 211.071C150.929 224.059 157.301 247.765 176.176 251.838L179.736 252.607C196.713 256.27 205.198 275.412 196.51 290.451L188.054 305.09C179.046 320.685 187.062 340.596 204.363 345.6V345.6C225.057 351.585 239.46 370.323 239.922 391.861L240.907 437.786C241.027 443.391 236.516 448 230.909 448H209.821C208.289 448 207.048 446.758 207.048 445.227V422.338C207.048 421.11 206.241 420.029 205.064 419.68L193.983 416.387L173.918 408.439L163.309 402.857C162.234 402.291 160.916 402.491 160.057 403.35L143.658 419.75C142.575 420.833 140.819 420.833 139.736 419.75L81.5821 361.596C80.4991 360.513 80.4991 358.757 81.5821 357.674L97.7671 341.489C98.6349 340.622 98.8291 339.286 98.2444 338.207L92.7373 328.043L83.6134 306.571L80.3204 295.49C79.9708 294.314 78.8895 293.507 77.6622 293.507H54.7731C53.2416 293.507 52 292.265 52 290.734V208.492C52 206.96 53.2416 205.719 54.7731 205.719H77.9656C79.1805 205.719 80.2539 204.928 80.614 203.768L84.1681 192.319L92.3449 172.349L97.852 162.185C98.4367 161.106 98.2425 159.771 97.3747 158.903L81.1896 142.718C80.1067 141.635 80.1067 139.879 81.1896 138.796L139.343 80.6423C140.426 79.5593 142.182 79.5593 143.265 80.6423L159.665 97.0418C160.524 97.9009 161.842 98.1008 162.917 97.535L173.526 91.9527L193.429 83.6134L204.51 80.3204C205.686 79.9708 206.493 78.8895 206.493 77.6622V54.7731C206.493 53.2416 207.735 52 209.266 52H291.508C293.04 52 294.281 53.2416 294.281 54.7731V77.9656C294.281 79.1805 295.072 80.2539 296.232 80.614L307.681 84.1681L327.651 92.3449L337.815 97.852C338.894 98.4367 340.229 98.2425 341.097 97.3747L357.282 81.1896C358.365 80.1067 360.121 80.1067 361.204 81.1896L419.358 139.343C420.441 140.426 420.441 142.182 419.358 143.265L402.958 159.665C402.099 160.524 401.899 161.842 402.465 162.917L408.047 173.526L415.832 191.765L419.386 203.213C419.746 204.374 420.82 205.164 422.034 205.164H445.227C446.758 205.164 448 206.406 448 207.937V290.179C448 291.711 446.758 292.952 445.227 292.952H422.338C421.11 292.952 420.029 293.759 419.68 294.936L416.387 306.017L408.44 326.082L402.857 336.691C402.292 337.766 402.491 339.084 403.35 339.943L419.75 356.343C420.833 357.426 420.833 359.181 419.75 360.264L361.596 418.418C360.513 419.501 358.757 419.501 357.674 418.418L341.489 402.233C340.622 401.365 339.287 401.171 338.207 401.756L328.043 407.263L308.235 415.832L296.787 419.386C295.626 419.746 294.836 420.82 294.836 422.034V445.227C294.836 446.758 293.594 448 292.063 448H274.958" stroke="#FFE600" stroke-width="20" stroke-linecap="round"/>
</g>
<defs>
<filter id="filter0_i" x="42" y="42" width="416" height="418" filterUnits="userSpaceOnUse" color-interpolation-filters="sRGB">
<feFlood flood-opacity="0" result="BackgroundImageFix"/>
<feBlend mode="normal" in="SourceGraphic" in2="BackgroundImageFix" result="shape"/>
<feColorMatrix in="SourceAlpha" type="matrix" values="0 0 0 0 0 0 0 0 0 0 0 0 0 0 0 0 0 0 127 0" result="hardAlpha"/>
<feOffset dy="2"/>
<feGaussianBlur stdDeviation="2"/>
<feComposite in2="hardAlpha" operator="arithmetic" k2="-1" k3="1"/>
<feColorMatrix type="matrix" values="0 0 0 0 1 0 0 0 0 0.407843 0 0 0 0 0.0392157 0 0 0 0.25 0"/>
<feBlend mode="normal" in2="shape" result="effect1_innerShadow"/>
</filter>
</defs>
</svg>
